<svg width="256" height="24" viewBox="0 0 256 24" fill="none" xmlns="http://www.w3.org/2000/svg">
<line x1="32" y1="23.5" x2="256" y2="23.5" stroke="#ED1164"/>
<path d="M36.114 6.7V5.622H34.994V13H36.184V8.548C36.184 7.498 37.122 6.588 38.466 6.574V5.468C37.43 5.468 36.59 6.014 36.114 6.7ZM45.4317 5.622V7.05C44.8717 6.098 43.9057 5.538 42.6597 5.538C40.5737 5.538 39.0337 7.12 39.0337 9.304C39.0337 11.516 40.5597 13.154 42.6597 13.154C43.9057 13.154 44.8717 12.566 45.4317 11.586V13H46.5377V5.622H45.4317ZM42.7997 12.104C41.3157 12.104 40.2097 10.914 40.2097 9.304C40.2097 7.722 41.3157 6.518 42.7997 6.518C44.3397 6.518 45.3897 7.666 45.3897 9.304C45.3897 10.956 44.3257 12.104 42.7997 12.104ZM51.9344 3.564H52.3824V2.612H51.8924C50.1984 2.612 49.2324 3.62 49.2324 5.314V5.622H47.8884V6.644H49.2324V13H50.4224V6.644H52.3544V5.622H50.4224V5.202C50.4224 4.152 50.9964 3.564 51.9344 3.564ZM59.3152 5.622V7.05C58.7552 6.098 57.7892 5.538 56.5432 5.538C54.4572 5.538 52.9172 7.12 52.9172 9.304C52.9172 11.516 54.4432 13.154 56.5432 13.154C57.7892 13.154 58.7552 12.566 59.3152 11.586V13H60.4212V5.622H59.3152ZM56.6832 12.104C55.1992 12.104 54.0932 10.914 54.0932 9.304C54.0932 7.722 55.1992 6.518 56.6832 6.518C58.2232 6.518 59.2732 7.666 59.2732 9.304C59.2732 10.956 58.2092 12.104 56.6832 12.104ZM63.242 9.752H69.374C69.388 9.612 69.402 9.36 69.402 9.15C69.402 7.204 67.988 5.454 65.762 5.454C63.676 5.454 62.038 7.176 62.038 9.318C62.038 11.516 63.578 13.168 65.846 13.168C67.596 13.168 68.618 12.412 69.164 11.362L68.128 10.732C67.764 11.586 67.092 12.048 65.888 12.048C64.53 12.048 63.452 11.124 63.242 9.752ZM63.256 8.716C63.48 7.316 64.558 6.49 65.804 6.49C67.036 6.49 68.002 7.33 68.184 8.716H63.256ZM71.0085 13H72.1985V2.766H71.0085V13ZM78.8287 4.866C75.8747 4.866 73.8727 6.966 73.8727 9.724C73.8727 12.566 75.8187 14.54 78.8287 14.54C80.1027 14.54 81.1667 14.092 81.7687 13.406L81.2367 12.804C80.7747 13.406 79.8787 13.756 78.8287 13.756C76.3507 13.756 74.7267 12.146 74.7267 9.724C74.7267 7.442 76.4207 5.65 78.8287 5.65C81.2647 5.65 82.9027 7.4 82.9027 9.64C82.9027 10.718 82.4407 11.278 81.7547 11.278C81.3347 11.278 81.1107 10.984 81.1107 10.536V7.47H80.3827V8.366C80.0187 7.736 79.3887 7.33 78.5487 7.33C77.2187 7.33 76.2947 8.394 76.2947 9.752C76.2947 11.096 77.2467 12.16 78.5487 12.16C79.4587 12.16 80.0747 11.74 80.4107 11.096C80.5647 11.712 81.0547 12.076 81.7687 12.076C82.8747 12.076 83.7427 11.068 83.7427 9.64C83.7427 6.924 81.7827 4.866 78.8287 4.866ZM78.6887 11.334C77.8207 11.334 77.1907 10.648 77.1907 9.752C77.1907 8.842 77.8487 8.156 78.6887 8.156C79.5847 8.156 80.2007 8.828 80.2007 9.752C80.2007 10.662 79.5847 11.334 78.6887 11.334ZM90.4971 5.622L88.0611 11.824L85.6251 5.622H84.3791L87.3891 13H88.7331L91.7431 5.622H90.4971ZM93.4289 9.752H99.5609C99.5749 9.612 99.5889 9.36 99.5889 9.15C99.5889 7.204 98.1749 5.454 95.9489 5.454C93.8629 5.454 92.2249 7.176 92.2249 9.318C92.2249 11.516 93.7649 13.168 96.0329 13.168C97.7829 13.168 98.8049 12.412 99.3509 11.362L98.3149 10.732C97.9509 11.586 97.2789 12.048 96.0749 12.048C94.7169 12.048 93.6389 11.124 93.4289 9.752ZM93.4429 8.716C93.6669 7.316 94.7449 6.49 95.9909 6.49C97.2229 6.49 98.1889 7.33 98.3709 8.716H93.4429ZM102.315 6.7V5.622H101.195V13H102.385V8.548C102.385 7.498 103.323 6.588 104.667 6.574V5.468C103.631 5.468 102.791 6.014 102.315 6.7ZM106.851 12.02L111.093 6.532V5.622H105.577V6.602H109.637L105.381 12.132V13H111.247V12.02H106.851ZM113.195 9.752H119.327C119.341 9.612 119.355 9.36 119.355 9.15C119.355 7.204 117.941 5.454 115.715 5.454C113.629 5.454 111.991 7.176 111.991 9.318C111.991 11.516 113.531 13.168 115.799 13.168C117.549 13.168 118.571 12.412 119.117 11.362L118.081 10.732C117.717 11.586 117.045 12.048 115.841 12.048C114.483 12.048 113.405 11.124 113.195 9.752ZM113.209 8.716C113.433 7.316 114.511 6.49 115.757 6.49C116.989 6.49 117.955 7.33 118.137 8.716H113.209ZM120.961 13H122.151V2.766H120.961V13ZM124.707 13.126C125.169 13.126 125.519 12.79 125.519 12.328C125.519 11.852 125.169 11.516 124.707 11.516C124.245 11.516 123.909 11.852 123.909 12.328C123.909 12.79 124.245 13.126 124.707 13.126ZM130.397 13.154C132.189 13.154 133.407 12.076 133.785 10.872L132.721 10.438C132.413 11.46 131.559 12.09 130.425 12.09C128.927 12.09 127.807 10.956 127.807 9.318C127.807 7.68 128.927 6.546 130.411 6.546C131.531 6.546 132.371 7.176 132.679 8.198L133.743 7.778C133.365 6.546 132.161 5.482 130.383 5.482C128.199 5.482 126.603 7.134 126.603 9.318C126.603 11.53 128.213 13.154 130.397 13.154ZM138.618 13.154C140.858 13.154 142.454 11.516 142.454 9.318C142.454 7.106 140.858 5.468 138.618 5.468C136.378 5.468 134.782 7.106 134.782 9.318C134.782 11.516 136.378 13.154 138.618 13.154ZM138.632 12.09C137.064 12.09 135.986 10.928 135.986 9.318C135.986 7.694 137.064 6.532 138.632 6.532C140.2 6.532 141.264 7.694 141.264 9.318C141.264 10.928 140.186 12.09 138.632 12.09ZM152.828 5.468C151.498 5.468 150.588 6.168 150.21 6.966C149.804 6.014 148.964 5.468 147.69 5.468C146.556 5.468 145.702 6.028 145.254 6.714V5.622H144.134V13H145.324V8.352C145.338 7.498 146.122 6.532 147.354 6.532C148.586 6.518 149.328 7.4 149.328 8.66V13H150.518V8.352C150.546 7.498 151.316 6.532 152.562 6.532C153.794 6.518 154.536 7.414 154.536 8.66V13H155.726V8.45C155.726 6.728 154.676 5.468 152.828 5.468ZM158.203 13.126C158.665 13.126 159.015 12.79 159.015 12.328C159.015 11.852 158.665 11.516 158.203 11.516C157.741 11.516 157.405 11.852 157.405 12.328C157.405 12.79 157.741 13.126 158.203 13.126ZM164.672 5.468C163.51 5.468 162.558 5.986 161.97 6.84V2.766H160.78V13H161.886V11.656C162.474 12.594 163.44 13.154 164.644 13.154C166.744 13.154 168.284 11.516 168.284 9.304C168.284 7.12 166.772 5.468 164.672 5.468ZM164.518 12.104C162.992 12.104 161.914 10.956 161.914 9.304C161.914 7.666 162.978 6.518 164.518 6.518C165.988 6.518 167.094 7.722 167.094 9.304C167.094 10.914 166.002 12.104 164.518 12.104ZM171.09 6.7V5.622H169.97V13H171.16V8.548C171.16 7.498 172.098 6.588 173.442 6.574V5.468C172.406 5.468 171.566 6.014 171.09 6.7Z" fill="#ED1164"/>
<path d="M2.66665 2.66667H13.3333C14.0666 2.66667 14.6666 3.26667 14.6666 4V12C14.6666 12.7333 14.0666 13.3333 13.3333 13.3333H2.66665C1.93331 13.3333 1.33331 12.7333 1.33331 12V4C1.33331 3.26667 1.93331 2.66667 2.66665 2.66667Z" stroke="#ED1164" stroke-width="1.5" stroke-linecap="round" stroke-linejoin="round"/>
<path d="M14.6666 4L7.99998 8.66667L1.33331 4" stroke="#ED1164" stroke-width="1.5" stroke-linecap="round" stroke-linejoin="round"/>
</svg>
