<svg width="1440" height="65" viewBox="0 0 1440 65" fill="none" xmlns="http://www.w3.org/2000/svg">
<rect y="1" width="1440" height="64" fill="white"/>
<line y1="0.5" x2="1440" y2="0.5" stroke="#91A3AD" stroke-opacity="0.15"/>
<path d="M572.416 37.168C575.202 37.168 577.134 35.166 577.134 32.38C577.134 29.664 575.202 27.578 572.416 27.578C569.616 27.578 567.67 29.664 567.67 32.38C567.67 35.166 569.616 37.168 572.416 37.168ZM572.416 36.384C570.162 36.384 568.496 34.76 568.496 32.38C568.496 30.126 570.162 28.362 572.416 28.362C574.628 28.362 576.308 30.126 576.308 32.38C576.308 34.76 574.628 36.384 572.416 36.384ZM572.458 35.068C573.718 35.068 574.572 34.312 574.838 33.444L573.97 33.136C573.774 33.808 573.228 34.186 572.472 34.186C571.45 34.186 570.75 33.444 570.75 32.366C570.75 31.288 571.45 30.546 572.472 30.546C573.214 30.546 573.76 30.938 573.956 31.61L574.81 31.302C574.544 30.42 573.69 29.678 572.458 29.678C570.918 29.678 569.798 30.84 569.798 32.366C569.798 33.906 570.932 35.068 572.458 35.068ZM586.391 37.154C588.729 37.154 590.129 35.852 590.745 34.074L589.597 33.598C589.093 35.11 588.057 36.02 586.363 36.02C584.263 36.02 582.737 34.438 582.737 32.142C582.737 29.832 584.263 28.25 586.335 28.25C588.029 28.25 589.093 29.16 589.597 30.672L590.745 30.196C590.143 28.446 588.687 27.116 586.349 27.116C583.591 27.116 581.519 29.188 581.519 32.142C581.519 35.082 583.591 37.154 586.391 37.154ZM595.471 37.154C597.711 37.154 599.307 35.516 599.307 33.318C599.307 31.106 597.711 29.468 595.471 29.468C593.231 29.468 591.635 31.106 591.635 33.318C591.635 35.516 593.231 37.154 595.471 37.154ZM595.485 36.09C593.917 36.09 592.839 34.928 592.839 33.318C592.839 31.694 593.917 30.532 595.485 30.532C597.053 30.532 598.117 31.694 598.117 33.318C598.117 34.928 597.039 36.09 595.485 36.09ZM604.739 29.468C603.521 29.468 602.541 30.042 601.953 30.98V29.622H600.847V39.506H602.037V35.796C602.625 36.65 603.563 37.154 604.711 37.154C606.811 37.154 608.351 35.516 608.351 33.318C608.351 31.12 606.839 29.468 604.739 29.468ZM604.585 36.104C603.045 36.104 601.981 34.956 601.981 33.318C601.981 31.68 603.059 30.518 604.585 30.518C606.069 30.518 607.161 31.708 607.161 33.318C607.161 34.914 606.055 36.104 604.585 36.104ZM614.942 29.622L612.45 35.992L610.07 29.622H608.824L611.708 37H612.03L610.98 39.506H612.156L616.188 29.622H614.942ZM618.414 30.7V29.622H617.294V37H618.484V32.548C618.484 31.498 619.422 30.588 620.766 30.574V29.468C619.73 29.468 618.89 30.014 618.414 30.7ZM622.571 28.264C623.103 28.264 623.509 27.886 623.509 27.354C623.509 26.808 623.103 26.416 622.571 26.416C622.039 26.416 621.633 26.808 621.633 27.354C621.633 27.886 622.039 28.264 622.571 28.264ZM621.983 37H623.173V29.622H621.983V37ZM631.091 29.622V30.994C630.531 30.056 629.565 29.468 628.333 29.468C626.233 29.468 624.693 31.12 624.693 33.206C624.693 35.32 626.219 36.944 628.333 36.944C629.565 36.944 630.531 36.356 631.091 35.404V36.132C631.091 37.686 630.069 38.652 628.417 38.652C627.157 38.652 626.261 38.106 625.897 37.028L624.875 37.42C625.351 38.806 626.513 39.66 628.403 39.66C630.783 39.66 632.197 38.232 632.197 36.034V29.622H631.091ZM628.445 36.006C626.975 36.006 625.883 34.83 625.883 33.262C625.883 31.708 626.989 30.518 628.473 30.518C629.971 30.518 631.021 31.666 631.021 33.262C631.021 34.858 629.957 36.006 628.445 36.006ZM637.833 29.468C636.713 29.468 635.845 29.958 635.355 30.602V26.766H634.165V37H635.355V32.436C635.369 31.442 636.265 30.532 637.525 30.532C638.841 30.518 639.639 31.33 639.639 32.702V37H640.829V32.492C640.829 30.658 639.723 29.468 637.833 29.468ZM645.555 37H646.633V35.95H645.765C644.813 35.95 644.295 35.39 644.295 34.396V30.644H646.521V29.622H644.337V27.732H643.189V28.95C643.189 29.398 642.979 29.622 642.531 29.622H641.761V30.644H643.105V34.522C643.105 36.048 643.959 37 645.555 37ZM652.146 35.992L654.918 33.122C655.87 32.198 656.724 31.106 656.724 29.776C656.724 28.194 655.52 27.13 653.672 27.13C652.076 27.13 650.788 28.026 650.424 29.426L651.558 29.804C651.852 28.726 652.678 28.166 653.672 28.166C654.778 28.166 655.52 28.852 655.52 29.818C655.52 30.882 654.666 31.876 653.994 32.534L650.41 36.216V37H656.906V35.992H652.146ZM662.351 37.154C664.871 37.154 666.481 35.236 666.481 32.142C666.481 28.992 664.885 27.144 662.351 27.144C659.831 27.144 658.207 28.978 658.207 32.142C658.207 35.25 659.831 37.154 662.351 37.154ZM662.351 36.02C660.587 36.02 659.425 34.592 659.425 32.142C659.425 29.692 660.587 28.278 662.351 28.278C664.101 28.278 665.263 29.706 665.263 32.142C665.263 34.578 664.101 36.02 662.351 36.02ZM669.358 35.992L672.13 33.122C673.082 32.198 673.936 31.106 673.936 29.776C673.936 28.194 672.732 27.13 670.884 27.13C669.288 27.13 668 28.026 667.636 29.426L668.77 29.804C669.064 28.726 669.89 28.166 670.884 28.166C671.99 28.166 672.732 28.852 672.732 29.818C672.732 30.882 671.878 31.876 671.206 32.534L667.622 36.216V37H674.118V35.992H669.358ZM678.15 35.992V27.27H676.96V28.6H675.378V29.594H676.96V35.992H675.322V37H679.466V35.992H678.15ZM681.248 37.126C681.71 37.126 682.06 36.79 682.06 36.328C682.06 35.852 681.71 35.516 681.248 35.516C680.786 35.516 680.45 35.852 680.45 36.328C680.45 36.79 680.786 37.126 681.248 37.126ZM692.696 27.27H685.374V28.348H688.44V37H689.63V28.348H692.696V27.27ZM695.877 37.154C698.117 37.154 699.713 35.516 699.713 33.318C699.713 31.106 698.117 29.468 695.877 29.468C693.637 29.468 692.041 31.106 692.041 33.318C692.041 35.516 693.637 37.154 695.877 37.154ZM695.891 36.09C694.323 36.09 693.245 34.928 693.245 33.318C693.245 31.694 694.323 30.532 695.891 30.532C697.459 30.532 698.523 31.694 698.523 33.318C698.523 34.928 697.445 36.09 695.891 36.09ZM707.119 26.766V30.868C706.531 29.986 705.579 29.468 704.403 29.468C702.317 29.468 700.805 31.12 700.805 33.304C700.805 35.516 702.331 37.154 704.431 37.154C705.649 37.154 706.629 36.58 707.203 35.642V37H708.309V26.766H707.119ZM704.571 36.104C703.087 36.104 701.981 34.914 701.981 33.304C701.981 31.722 703.087 30.518 704.571 30.518C706.111 30.518 707.161 31.666 707.161 33.304C707.161 34.956 706.097 36.104 704.571 36.104ZM713.678 37.154C715.918 37.154 717.514 35.516 717.514 33.318C717.514 31.106 715.918 29.468 713.678 29.468C711.438 29.468 709.842 31.106 709.842 33.318C709.842 35.516 711.438 37.154 713.678 37.154ZM713.692 36.09C712.124 36.09 711.046 34.928 711.046 33.318C711.046 31.694 712.124 30.532 713.692 30.532C715.26 30.532 716.324 31.694 716.324 33.318C716.324 34.928 715.246 36.09 713.692 36.09ZM721.392 37.154C723.142 37.154 724.304 36.342 724.304 34.942C724.304 32.24 720.034 33.108 720.034 31.456C720.034 30.854 720.524 30.476 721.378 30.476C722.12 30.476 722.652 30.784 722.89 31.442L724.024 30.994C723.702 30.014 722.736 29.468 721.392 29.468C719.768 29.468 718.718 30.252 718.718 31.526C718.718 34.06 722.96 33.262 722.96 35.04C722.96 35.726 722.358 36.118 721.434 36.118C720.412 36.118 719.726 35.67 719.488 34.914L718.354 35.362C718.746 36.538 719.866 37.154 721.392 37.154ZM732.217 37.154C734.457 37.154 736.053 35.516 736.053 33.318C736.053 31.106 734.457 29.468 732.217 29.468C729.977 29.468 728.381 31.106 728.381 33.318C728.381 35.516 729.977 37.154 732.217 37.154ZM732.231 36.09C730.663 36.09 729.585 34.928 729.585 33.318C729.585 31.694 730.663 30.532 732.231 30.532C733.799 30.532 734.863 31.694 734.863 33.318C734.863 34.928 733.785 36.09 732.231 36.09ZM739.931 37.154C741.681 37.154 742.843 36.342 742.843 34.942C742.843 32.24 738.573 33.108 738.573 31.456C738.573 30.854 739.063 30.476 739.917 30.476C740.659 30.476 741.191 30.784 741.429 31.442L742.563 30.994C742.241 30.014 741.275 29.468 739.931 29.468C738.307 29.468 737.257 30.252 737.257 31.526C737.257 34.06 741.499 33.262 741.499 35.04C741.499 35.726 740.897 36.118 739.973 36.118C738.951 36.118 738.265 35.67 738.027 34.914L736.893 35.362C737.285 36.538 738.405 37.154 739.931 37.154ZM753.248 26.766V30.868C752.66 29.986 751.708 29.468 750.532 29.468C748.446 29.468 746.934 31.12 746.934 33.304C746.934 35.516 748.46 37.154 750.56 37.154C751.778 37.154 752.758 36.58 753.332 35.642V37H754.438V26.766H753.248ZM750.7 36.104C749.216 36.104 748.11 34.914 748.11 33.304C748.11 31.722 749.216 30.518 750.7 30.518C752.24 30.518 753.29 31.666 753.29 33.304C753.29 34.956 752.226 36.104 750.7 36.104ZM757.02 28.264C757.552 28.264 757.958 27.886 757.958 27.354C757.958 26.808 757.552 26.416 757.02 26.416C756.488 26.416 756.082 26.808 756.082 27.354C756.082 27.886 756.488 28.264 757.02 28.264ZM756.432 37H757.622V29.622H756.432V37ZM760.711 30.7V29.622H759.591V37H760.781V32.548C760.781 31.498 761.719 30.588 763.063 30.574V29.468C762.027 29.468 761.187 30.014 760.711 30.7ZM764.624 33.752H770.756C770.77 33.612 770.784 33.36 770.784 33.15C770.784 31.204 769.37 29.454 767.144 29.454C765.058 29.454 763.42 31.176 763.42 33.318C763.42 35.516 764.96 37.168 767.228 37.168C768.978 37.168 770 36.412 770.546 35.362L769.51 34.732C769.146 35.586 768.474 36.048 767.27 36.048C765.912 36.048 764.834 35.124 764.624 33.752ZM764.638 32.716C764.862 31.316 765.94 30.49 767.186 30.49C768.418 30.49 769.384 31.33 769.566 32.716H764.638ZM772.839 28.264C773.371 28.264 773.777 27.886 773.777 27.354C773.777 26.808 773.371 26.416 772.839 26.416C772.307 26.416 771.901 26.808 771.901 27.354C771.901 27.886 772.307 28.264 772.839 28.264ZM772.251 37H773.441V29.622H772.251V37ZM778.377 37H779.455V35.95H778.587C777.635 35.95 777.117 35.39 777.117 34.396V30.644H779.343V29.622H777.159V27.732H776.011V28.95C776.011 29.398 775.801 29.622 775.353 29.622H774.583V30.644H775.927V34.522C775.927 36.048 776.781 37 778.377 37ZM783.746 37.154C785.986 37.154 787.582 35.516 787.582 33.318C787.582 31.106 785.986 29.468 783.746 29.468C781.506 29.468 779.91 31.106 779.91 33.318C779.91 35.516 781.506 37.154 783.746 37.154ZM783.76 36.09C782.192 36.09 781.114 34.928 781.114 33.318C781.114 31.694 782.192 30.532 783.76 30.532C785.328 30.532 786.392 31.694 786.392 33.318C786.392 34.928 785.314 36.09 783.76 36.09ZM791.461 37.154C793.211 37.154 794.373 36.342 794.373 34.942C794.373 32.24 790.103 33.108 790.103 31.456C790.103 30.854 790.593 30.476 791.447 30.476C792.189 30.476 792.721 30.784 792.959 31.442L794.093 30.994C793.771 30.014 792.805 29.468 791.461 29.468C789.837 29.468 788.787 30.252 788.787 31.526C788.787 34.06 793.029 33.262 793.029 35.04C793.029 35.726 792.427 36.118 791.503 36.118C790.481 36.118 789.795 35.67 789.557 34.914L788.423 35.362C788.815 36.538 789.935 37.154 791.461 37.154ZM800.031 30.7V29.622H798.911V37H800.101V32.548C800.101 31.498 801.039 30.588 802.383 30.574V29.468C801.347 29.468 800.507 30.014 800.031 30.7ZM803.945 33.752H810.077C810.091 33.612 810.105 33.36 810.105 33.15C810.105 31.204 808.691 29.454 806.465 29.454C804.379 29.454 802.741 31.176 802.741 33.318C802.741 35.516 804.281 37.168 806.549 37.168C808.299 37.168 809.321 36.412 809.867 35.362L808.831 34.732C808.467 35.586 807.795 36.048 806.591 36.048C805.233 36.048 804.155 35.124 803.945 33.752ZM803.959 32.716C804.183 31.316 805.261 30.49 806.507 30.49C807.739 30.49 808.705 31.33 808.887 32.716H803.959ZM813.91 37.154C815.66 37.154 816.822 36.342 816.822 34.942C816.822 32.24 812.552 33.108 812.552 31.456C812.552 30.854 813.042 30.476 813.896 30.476C814.638 30.476 815.17 30.784 815.408 31.442L816.542 30.994C816.22 30.014 815.254 29.468 813.91 29.468C812.286 29.468 811.236 30.252 811.236 31.526C811.236 34.06 815.478 33.262 815.478 35.04C815.478 35.726 814.876 36.118 813.952 36.118C812.93 36.118 812.244 35.67 812.006 34.914L810.872 35.362C811.264 36.538 812.384 37.154 813.91 37.154ZM818.902 33.752H825.034C825.048 33.612 825.062 33.36 825.062 33.15C825.062 31.204 823.648 29.454 821.422 29.454C819.336 29.454 817.698 31.176 817.698 33.318C817.698 35.516 819.238 37.168 821.506 37.168C823.256 37.168 824.278 36.412 824.824 35.362L823.788 34.732C823.424 35.586 822.752 36.048 821.548 36.048C820.19 36.048 819.112 35.124 818.902 33.752ZM818.916 32.716C819.14 31.316 820.218 30.49 821.464 30.49C822.696 30.49 823.662 31.33 823.844 32.716H818.916ZM827.648 30.7V29.622H826.528V37H827.718V32.548C827.718 31.498 828.656 30.588 830 30.574V29.468C828.964 29.468 828.124 30.014 827.648 30.7ZM836.454 29.622L834.018 35.824L831.582 29.622H830.336L833.346 37H834.69L837.7 29.622H836.454ZM844.523 29.622V31.05C843.963 30.098 842.997 29.538 841.751 29.538C839.665 29.538 838.125 31.12 838.125 33.304C838.125 35.516 839.651 37.154 841.751 37.154C842.997 37.154 843.963 36.566 844.523 35.586V37H845.629V29.622H844.523ZM841.891 36.104C840.407 36.104 839.301 34.914 839.301 33.304C839.301 31.722 840.407 30.518 841.891 30.518C843.431 30.518 844.481 31.666 844.481 33.304C844.481 34.956 843.417 36.104 841.891 36.104ZM853.49 26.766V30.868C852.902 29.986 851.95 29.468 850.774 29.468C848.688 29.468 847.176 31.12 847.176 33.304C847.176 35.516 848.702 37.154 850.802 37.154C852.02 37.154 853 36.58 853.574 35.642V37H854.68V26.766H853.49ZM850.942 36.104C849.458 36.104 848.352 34.914 848.352 33.304C848.352 31.722 849.458 30.518 850.942 30.518C852.482 30.518 853.532 31.666 853.532 33.304C853.532 34.956 852.468 36.104 850.942 36.104ZM860.049 37.154C862.289 37.154 863.885 35.516 863.885 33.318C863.885 31.106 862.289 29.468 860.049 29.468C857.809 29.468 856.213 31.106 856.213 33.318C856.213 35.516 857.809 37.154 860.049 37.154ZM860.063 36.09C858.495 36.09 857.417 34.928 857.417 33.318C857.417 31.694 858.495 30.532 860.063 30.532C861.631 30.532 862.695 31.694 862.695 33.318C862.695 34.928 861.617 36.09 860.063 36.09ZM867.763 37.154C869.513 37.154 870.675 36.342 870.675 34.942C870.675 32.24 866.405 33.108 866.405 31.456C866.405 30.854 866.895 30.476 867.749 30.476C868.491 30.476 869.023 30.784 869.261 31.442L870.395 30.994C870.073 30.014 869.107 29.468 867.763 29.468C866.139 29.468 865.089 30.252 865.089 31.526C865.089 34.06 869.331 33.262 869.331 35.04C869.331 35.726 868.729 36.118 867.805 36.118C866.783 36.118 866.097 35.67 865.859 34.914L864.725 35.362C865.117 36.538 866.237 37.154 867.763 37.154ZM872.517 37.126C872.979 37.126 873.329 36.79 873.329 36.328C873.329 35.852 872.979 35.516 872.517 35.516C872.055 35.516 871.719 35.852 871.719 36.328C871.719 36.79 872.055 37.126 872.517 37.126Z" fill="#ED1164"/>
</svg>
